# xmcd CD database file
#
# Track frame offsets:
#	150
#	23078
#	45075
#	67650
#	94718
#	117604
#	138992
#	164980
#	190670
#	208035
#
# Disc length: 3128 seconds
#
# Revision: 1
# Processed by: cddbd v1.5.2PL0 Copyright (c) Steve Scherf et al.
# Submitted via: CDex 1.70beta2
#
DISCID=830c360a
DTITLE=茜 -AKANE- - こちゃへ
DYEAR=2007
DGENRE=Country
TTITLE0=こちゃへ
TTITLE1=YAYAYA
TTITLE2=Lullaby
TTITLE3=Ten-ma
TTITLE4=ちゃいなBONBON
TTITLE5=祈
TTITLE6=DAIKOKUMAI（秋田大黒舞）
TTITLE7=タビビトの詩
TTITLE8=AKANE SOLAN（ソーラン節）
TTITLE9=ふなうた
EXTD=YEAR: 2007
EXTT0=
EXTT1=
EXTT2=
EXTT3=
EXTT4=
EXTT5=
EXTT6=
EXTT7=
EXTT8=
EXTT9=
PLAYORDER=
